<svg xmlns="http://www.w3.org/2000/svg" id="Layer_1" width="255" height="263" viewBox="0 0 255 263">
  <style>
    .st0{fill:#44C6A1;} .st1{fill:#8E093F;} .st2{fill:#BDCCD4;}
  </style>
  <path d="M133.8 110c103.6-88.3 147.8-11.7 19.5 33.8 88.3 103.6 11.7 147.8-33.8 19.5-103.6 88.4-147.8 11.8-19.5-33.8C11.7 25.9 88.3-18.3 133.8 110z" class="st0"/>
  <path d="M140.5 112.8c122.9-58.5 145.8 27 10.1 37.7 58.5 122.9-27 145.8-37.7 10.1-122.9 58.5-145.8-27-10.1-37.7C44.2-.1 129.7-23 140.5 112.8z" class="st0"/>
  <path d="M146.2 117.1c133.9-24.7 133.9 63.8 0 39.1 24.7 133.9-63.8 133.9-39.1 0-133.9 24.7-133.9-63.8 0-39.1-24.7-133.8 63.8-133.8 39.1 0zm4.4 5.8c135.7 10.8 112.8 96.3-10.1 37.7-10.8 135.7-96.3 112.8-37.7-10.1-135.8-10.8-112.9-96.3 10.1-37.7C123.6-23 209.1-.1 150.6 122.9z" class="st0"/>
  <path d="M153.4 129.5c128.3 45.5 84.1 122.2-19.5 33.8-45.6 128.4-122.2 84.1-33.9-19.5C-28.3 98.3 15.9 21.7 119.5 110c45.6-128.3 122.2-84.1 33.9 19.5z" class="st0"/>
  <path d="M154.3 136.7c112.1 77.2 49.6 139.8-27.6 27.6-77.2 112.1-139.8 49.6-27.6-27.6-112.2-77.2-49.6-139.8 27.6-27.6 77.2-112.2 139.7-49.6 27.6 27.6z" class="st0"/>
  <circle cx="127" cy="137" r="92" class="st1"/>
  <circle cx="127" cy="137" r="56" class="st2"/>
  <path d="M239.6 137c-113.1-.3-112.9-.6-112.6 112.6.3-113.1.6-112.9-112.6-112.6 113.1.3 112.9.6 112.6-112.6-.3 113.2-.6 112.9 112.6 112.6z" class="st2"/>
  <circle cx="127.5" cy="137.5" r="33.4" class="st1"/>
  <path d="M194.6 137.5c-67.4-.2-67.2-.3-67.1 67.1.2-67.4.3-67.2-67.1-67.1 67.4.2 67.2.3 67.1-67.1-.2 67.4-.3 67.3 67.1 67.1z" class="st2"/>
</svg>
