<?xml version="1.0" encoding="utf-8"?>
<!-- Generator: Adobe Illustrator 18.1.1, SVG Export Plug-In . SVG Version: 6.00 Build 0)  -->
<svg version="1.1" id="Layer_1" xmlns="http://www.w3.org/2000/svg" xmlns:xlink="http://www.w3.org/1999/xlink" x="0px" y="0px"
	 viewBox="0 0 236.8 236.8" enable-background="new 0 0 236.8 236.8" xml:space="preserve">
<circle fill="#1A1A1A" cx="118.4" cy="118.4" r="118.4"/>
<g>
	<g>
		<path fill="#333333" d="M121.4,107.4c104.2-104.2,149-29.6,8.1,13.5c104.2,104.2,29.6,149-13.5,8.1
			c-104.2,104.2-149,29.6-8.1-13.5C3.7,11.3,78.3-33.5,121.4,107.4z"/>
		<path fill="#333333" d="M124.8,108.9c132.5-64.6,150.6,20.5,3.3,15.4c64.6,132.5-20.5,150.6-15.4,3.3
			c-132.5,64.6-150.6-20.5-3.3-15.4C44.8-20.3,129.9-38.4,124.8,108.9z"/>
		<path fill="#333333" d="M127.5,111.4c146.3-17.9,135.7,68.4-1.9,15.6c17.9,146.3-68.4,135.7-15.6-1.9
			c-146.3,17.9-135.7-68.4,1.9-15.6C93.9-36.8,180.3-26.2,127.5,111.4z"/>
		<path fill="#333333" d="M129.3,114.6c144.1,30.7,106,108.9-6.9,14.2c-30.7,144.1-108.9,106-14.2-6.9
			C-35.9,91.2,2.2,13,115.1,107.7C145.8-36.4,224,1.7,129.3,114.6z"/>
		<path fill="#333333" d="M129.9,118.3c126.3,75.9,64.8,137.5-11.1,11.1c-75.9,126.3-137.5,64.8-11.1-11.1
			c-126.3-75.9-64.8-137.5,11.1-11.1C194.7-19.2,256.2,42.3,129.9,118.3z"/>
	</g>
</g>
<g>
	<g>
		<path fill="#B3B3B3" d="M119.5,110.7c89.8-78.1,121.7-15.4,5.8,11.3c78.1,89.8,15.4,121.7-11.3,5.8
			c-89.8,78.1-121.7,15.4-5.8-11.3C30.1,26.6,92.7-5.3,119.5,110.7z"/>
		<path fill="#B3B3B3" d="M122,112c109.5-46.5,120.5,22.9,2,12.6c46.5,109.5-22.9,120.5-12.6,2C1.9,173-9.1,103.6,109.5,114
			C63,4.4,132.4-6.6,122,112z"/>
		<path fill="#B3B3B3" d="M124,114c118.6-10.4,107.6,59.1-2,12.6c10.4,118.6-59.1,107.6-12.6-2c-118.6,10.4-107.6-59.1,2-12.6
			C101.1-6.6,170.5,4.4,124,114z"/>
		<path fill="#B3B3B3" d="M125.3,116.5c116,26.8,84,89.4-5.8,11.3c-26.8,116-89.4,84-11.3-5.8c-116-26.8-84-89.4,5.8-11.3
			C140.8-5.3,203.4,26.6,125.3,116.5z"/>
		<path fill="#B3B3B3" d="M125.8,119.3c102,61.3,52.3,111-9,9c-61.3,102-111,52.3-9-9c-102-61.3-52.3-111,9-9
			C178.1,8.3,227.8,57.9,125.8,119.3z"/>
	</g>
	<circle fill="none" stroke="#000000" stroke-miterlimit="10" cx="116.8" cy="119.3" r="60"/>
</g>
<g>
	<g>
		<path fill="#E6E6E6" d="M119,113.3c64.7-56.2,87.6-11.1,4.2,8.2c56.2,64.7,11.1,87.6-8.2,4.2c-64.7,56.2-87.6,11.1-4.2-8.2
			C54.7,52.8,99.7,29.9,119,113.3z"/>
		<path fill="#E6E6E6" d="M120.8,114.3c78.9-33.5,86.8,16.5,1.4,9c33.5,78.9-16.5,86.8-9,1.4c-78.9,33.5-86.8-16.5-1.4-9
			C78.3,36.8,128.3,28.9,120.8,114.3z"/>
		<path fill="#E6E6E6" d="M122.2,115.7c85.3-7.5,77.4,42.5-1.4,9c7.5,85.3-42.5,77.4-9-1.4c-85.3,7.5-77.4-42.5,1.4-9
			C105.7,28.9,155.7,36.8,122.2,115.7z"/>
		<path fill="#E6E6E6" d="M123.2,117.5c83.5,19.3,60.5,64.4-4.2,8.2c-19.3,83.5-64.4,60.5-8.2-4.2c-83.5-19.3-60.5-64.4,4.2-8.2
			C134.3,29.9,179.4,52.8,123.2,117.5z"/>
		<path fill="#E6E6E6" d="M123.5,119.5c73.4,44.1,37.6,79.9-6.5,6.5c-44.1,73.4-79.9,37.6-6.5-6.5C37.1,75.4,72.9,39.6,117,113
			C161.1,39.6,196.9,75.4,123.5,119.5z"/>
	</g>
	<circle fill="none" stroke="#4D4D4D" stroke-miterlimit="10" stroke-dasharray="16.9551,16.9551" cx="117" cy="119.5" r="43.2"/>
</g>
<g>
	<g>
		<path fill="#00FFFF" d="M172.8,51.9c-43,62-42.3,69.9,10.8,123.4c-62-43-69.9-42.3-123.4,10.8c43-62,42.3-69.9-10.8-123.4
			C111.4,105.7,119.3,105,172.8,51.9z"/>
		<path fill="#00FFFF" d="M204.1,119c-75.1,6.9-80.7,12.5-87.6,87.6c-6.9-75.1-12.5-80.7-87.6-87.6c75.1-6.9,80.7-12.5,87.6-87.6
			C123.4,106.5,129,112.1,204.1,119z"/>
	</g>
	<circle fill="none" stroke="#00FFFF" stroke-miterlimit="10" cx="116.5" cy="119" r="50.1"/>
</g>
<g>
	<g>
		<path fill="#CCCCCC" d="M148.3,81.2c-24,34.6-23.6,39,6,68.9c-34.6-24-39-23.6-68.9,6c24-34.6,23.6-39-6-68.9
			C114,111.3,118.4,110.9,148.3,81.2z"/>
		<path fill="#CCCCCC" d="M165.7,118.7c-41.9,3.9-45.1,7-48.9,48.9c-3.9-41.9-7-45.1-48.9-48.9c41.9-3.9,45.1-7,48.9-48.9
			C120.7,111.7,123.8,114.8,165.7,118.7z"/>
	</g>
	<circle fill="none" stroke="#000000" stroke-miterlimit="10" cx="116.8" cy="118.7" r="28"/>
</g>
<g>
	<g>
		<path fill="#CCCCCC" d="M160.7,94c-35.9,22-37.3,26.2-22.2,65.5c-22-35.9-26.2-37.3-65.5-22.2c35.9-22,37.3-26.2,22.2-65.5
			C117.2,107.7,121.4,109.1,160.7,94z"/>
		<path fill="#CCCCCC" d="M161.6,135.4c-40-13.3-44.1-11.7-64.5,25.1c13.3-40,11.7-44.1-25.1-64.5c40,13.3,44.1,11.7,64.5-25.1
			C123.2,110.9,124.8,115,161.6,135.4z"/>
	</g>
</g>
<g>
	<g>
		<path fill="#4D4D4D" d="M118.3,116.6c25.1-21.8,34-4.3,1.6,3.2c21.8,25.1,4.3,34-3.2,1.6c-25.1,21.8-34,4.3-1.6-3.2
			C93.3,93.2,110.8,84.3,118.3,116.6z"/>
		<path fill="#4D4D4D" d="M119,117c30.6-13,33.6,6.4,0.6,3.5c13,30.6-6.4,33.6-3.5,0.6c-30.6,13-33.6-6.4-0.6-3.5
			C102.5,87,121.9,83.9,119,117z"/>
		<path fill="#4D4D4D" d="M119.5,117.5c33.1-2.9,30,16.5-0.6,3.5c2.9,33.1-16.5,30-3.5-0.6c-33.1,2.9-30-16.5,0.6-3.5
			C113.1,83.9,132.5,87,119.5,117.5z"/>
		<path fill="#4D4D4D" d="M119.9,118.2c32.4,7.5,23.5,24.9-1.6,3.2c-7.5,32.4-24.9,23.5-3.2-1.6c-32.4-7.5-23.5-24.9,1.6-3.2
			C124.2,84.3,141.7,93.2,119.9,118.2z"/>
		<path fill="#4D4D4D" d="M120,119c28.5,17.1,14.6,31-2.5,2.5c-17.1,28.5-31,14.6-2.5-2.5c-28.5-17.1-14.6-31,2.5-2.5
			C134.6,88,148.5,101.9,120,119z"/>
	</g>
	<circle fill="none" stroke="#4D4D4D" stroke-miterlimit="10" stroke-dasharray="17.529,17.529" cx="117.5" cy="119" r="16.7"/>
</g>
<g>
	<g>
		<path fill="#CCCCCC" d="M115.4,123.5c26.9-28.6,35.6-11.5-3.4-6.6c28.6,26.9,11.5,35.6,6.6-3.4c-26.9,28.6-35.6,11.5,3.4,6.6
			C93.4,93.3,110.5,84.6,115.4,123.5z"/>
		<path fill="#CCCCCC" d="M113.9,122.7c34.4-18.9,37.4,0-1.2-7.3c18.9,34.4,0,37.4,7.3-1.2c-34.4,18.9-37.4,0,1.2,7.3
			C102.3,87.2,121.3,84.2,113.9,122.7z"/>
		<path fill="#CCCCCC" d="M112.8,121.6c38.5-7.4,35.5,11.6,1.2-7.3c7.4,38.5-11.6,35.5,7.3,1.2c-38.5,7.4-35.5-11.6-1.2,7.3
			C112.7,84.2,131.7,87.2,112.8,121.6z"/>
		<path fill="#CCCCCC" d="M112,120.1c38.9,4.9,30.2,22,3.4-6.6c-4.9,38.9-22,30.2,6.6,3.4c-38.9-4.9-30.2-22-3.4,6.6
			C123.5,84.6,140.6,93.3,112,120.1z"/>
		<path fill="#CCCCCC" d="M111.8,118.5c35.5,16.7,22,30.2,5.2-5.2c-16.7,35.5-30.2,22,5.2,5.2c-35.5-16.7-22-30.2-5.2,5.2
			C133.7,88.3,147.2,101.8,111.8,118.5z"/>
	</g>
</g>
<g>
	<g>
		<path fill="#00FFFF" d="M123.3,98c-7.3,20.9-7.5,20.5,13.7,26.9c-20.9-7.3-20.5-7.5-26.9,13.7c7.3-20.9,7.5-20.5-13.7-26.9
			C117.4,118.9,116.9,119.2,123.3,98z"/>
		<path fill="#00FFFF" d="M129.3,101c-13.4,17.7-13.5,17.1,4.7,29.8c-17.7-13.4-17.1-13.5-29.8,4.7c13.4-17.7,13.5-17.1-4.7-29.8
			C117.1,119.1,116.6,119.2,129.3,101z"/>
		<path fill="#00FFFF" d="M134,105.7c-18.2,12.7-18.1,12.1-4.7,29.8c-12.7-18.2-12.1-18.1-29.8-4.7c18.2-12.7,18.1-12.1,4.7-29.8
			C116.9,119.2,116.4,119.1,134,105.7z"/>
		<path fill="#00FFFF" d="M137,111.7c-21.2,6.4-21,6-13.7,26.9c-6.4-21.2-6-21-26.9-13.7c21.2-6.4,21-6,13.7-26.9
			C116.6,119.2,116.1,118.9,137,111.7z"/>
		<path fill="#00FFFF" d="M138.1,118.3c-22.2-0.5-21.8-0.8-21.3,21.3c0.5-22.2,0.8-21.8-21.3-21.3c22.2,0.5,21.8,0.8,21.3-21.3
			C116.3,119.1,115.9,118.7,138.1,118.3z"/>
	</g>
</g>
<g>
	<g>
		<path fill="#999999" d="M117.5,117.5c3.7-3.2,5-0.6,0.2,0.5c3.2,3.7,0.6,5-0.5,0.2c-3.7,3.2-5,0.6-0.2-0.5
			C113.8,114.1,116.4,112.8,117.5,117.5z"/>
		<path fill="#999999" d="M117.6,117.6c4.5-1.9,4.9,0.9,0.1,0.5c1.9,4.5-0.9,4.9-0.5,0.1c-4.5,1.9-4.9-0.9-0.1-0.5
			C115.2,113.2,118,112.7,117.6,117.6z"/>
		<path fill="#999999" d="M117.7,117.7c4.9-0.4,4.4,2.4-0.1,0.5c0.4,4.9-2.4,4.4-0.5-0.1c-4.9,0.4-4.4-2.4,0.1-0.5
			C116.7,112.7,119.6,113.2,117.7,117.7z"/>
		<path fill="#999999" d="M117.7,117.8c4.8,1.1,3.4,3.7-0.2,0.5c-1.1,4.8-3.7,3.4-0.5-0.2c-4.8-1.1-3.4-3.7,0.2-0.5
			C118.4,112.8,120.9,114.1,117.7,117.8z"/>
		<path fill="#999999" d="M117.7,117.9c4.2,2.5,2.1,4.6-0.4,0.4c-2.5,4.2-4.6,2.1-0.4-0.4c-4.2-2.5-2.1-4.6,0.4-0.4
			C119.9,113.3,121.9,115.4,117.7,117.9z"/>
	</g>
</g>
</svg>
