<?xml version="1.0" encoding="utf-8"?>
<!-- Generator: Adobe Illustrator 18.1.1, SVG Export Plug-In . SVG Version: 6.00 Build 0)  -->
<svg version="1.1" id="Layer_1" xmlns="http://www.w3.org/2000/svg" xmlns:xlink="http://www.w3.org/1999/xlink" x="0px" y="0px"
	 viewBox="0 0 207.3 207.3" enable-background="new 0 0 207.3 207.3" xml:space="preserve">
<g>
	<path fill="none" stroke="#380D1B" stroke-width="3" stroke-miterlimit="10" d="M200.5,103.6c-68.7,15.5-81.3,28.1-96.8,96.8
		c-15.5-68.7-28.1-81.3-96.8-96.8c68.7-15.5,81.3-28.1,96.8-96.8C119.2,75.5,131.8,88.1,200.5,103.6z"/>
</g>
<circle fill="#F2F2F2" cx="103.3" cy="103.3" r="77"/>
<circle fill="#4D4D4D" cx="102.9" cy="104.4" r="31.3"/>
<g>
	<circle fill="#808080" cx="103.1" cy="101.6" r="55.8"/>
	<polygon fill="none" stroke="#4D4D4D" stroke-width="4" stroke-miterlimit="10" points="157.9,101.6 159.3,102.3 157.9,103 
		159.7,103.8 158.1,104.4 159.2,105.2 158.5,105.9 159.6,106.7 159.6,107.4 158.4,108 158.7,108.8 158.9,109.5 159.3,110.3 
		158.6,110.9 157.5,111.5 157.6,112.2 156.7,112.8 158.2,113.8 157.5,114.4 156.4,114.9 157.9,116 156.7,116.4 155.7,116.9 
		157.2,118.1 157.3,118.9 156.6,119.4 156.5,120.1 156,120.7 154.9,121.1 154.5,121.7 154.5,122.5 154.5,123.3 154.8,124.2 
		154.5,124.8 154.2,125.5 152.9,125.7 152.3,126.1 152.3,126.9 151.4,127.3 151.5,128.1 151.9,129.2 151.2,129.6 150.6,130.1 
		151.2,131.3 150.2,131.5 150.6,132.7 149.2,132.6 149.4,133.6 149,134.2 148.7,134.9 147.2,134.7 147.6,135.9 146.7,136 
		146.9,137.2 146.8,138 144.8,137.3 145,138.4 144.3,138.8 143.6,139 143,139.5 143.4,140.8 143.3,141.8 141.3,140.8 141.2,141.7 
		141.2,142.7 139.9,142.3 140.2,143.8 138.9,143.3 139.4,145.1 138.7,145.3 137.3,144.8 137.2,145.8 136.6,146.2 135.6,146 
		135,146.4 134.9,147.5 134.3,147.9 133.2,147.5 133.4,149.2 132.3,148.8 131.7,149.2 131,149.4 131,150.9 129.7,150.1 128.9,150 
		128.5,150.8 127.8,150.9 127.4,151.7 126.7,152 125.8,151.8 125.9,153.6 124.7,152.7 124.3,153.7 123.9,154.5 123.1,154.4 
		122.1,153.8 121.6,154.8 120.8,154.5 120.4,155.6 119.5,155.1 118.6,154.7 118.3,156.3 117.3,155.5 116.4,154.7 116.1,156.3 
		115.4,156.7 114.4,155.6 113.7,155.5 113.2,156.6 112.4,156.1 111.7,156.7 111.1,157.4 110.3,157.1 109.5,156.1 108.8,156.2 
		108.2,157.2 107.4,156.9 106.8,157.8 106.1,158.2 105.3,157.8 104.6,158.1 103.9,157.5 103.1,156.5 102.4,157 101.7,158.1 
		100.9,158.1 100.3,156.4 99.5,157 98.7,158.2 98.1,156.9 97.4,156.9 96.6,157.3 96,156.3 95.2,156.8 94.5,157 93.9,156 93.2,155.7 
		92.6,155.4 91.6,156.5 90.9,156.5 90.5,155.2 89.5,156.1 89.1,154.9 88.2,155.4 87.6,155 86.9,154.6 86.3,154.2 85.3,155.1 
		84.6,154.7 83.8,154.8 83.4,153.9 83.2,152.5 82.2,153 81.5,152.9 80.6,153.1 80.4,151.7 79.2,152.7 79.1,151.2 78,151.8 78,150.3 
		76.6,151.3 75.9,151.1 76.2,149.2 75.5,148.9 74.1,150 74,148.7 72.6,149.5 72.1,149 72.2,147.5 71.8,146.9 71,146.7 70.8,145.8 
		70.2,145.5 69.1,145.6 68,146 67.8,145 67.1,144.7 66.5,144.3 66.1,143.7 66.2,142.4 64.9,142.8 64.6,142.1 64.7,140.9 63.4,141.3 
		63.3,140.4 62.8,139.8 62,139.6 61.8,138.8 61.5,138.1 60.1,138.4 60,137.5 59.8,136.8 59.8,135.8 59.5,135.2 58.6,135 58.3,134.3 
		58.2,133.5 57.7,133 57.6,132.2 57.3,131.5 56.3,131.4 54.9,131.4 56,129.8 54.3,130 55.1,128.7 53.6,128.8 53.2,128.1 54,126.9 
		52.7,126.8 52.9,125.9 52.5,125.2 52,124.7 52.5,123.7 51.5,123.3 52.4,122.2 51.2,121.9 50.1,121.5 50.9,120.5 50.1,120 
		49.8,119.3 50,118.5 49.8,117.8 49.1,117.3 50.1,116.3 49.8,115.6 48.9,115.1 48.9,114.4 47.9,113.9 47.9,113.1 49.2,112.1 
		49.1,111.4 47.2,111 48.8,110 48,109.4 47,108.8 48.1,108 47.4,107.3 48.5,106.5 46.6,105.9 46.4,105.2 46.7,104.5 47.3,103.7 
		46.3,103 46.5,102.3 47.9,101.6 46.3,100.8 46.3,100.1 47.7,99.4 47.5,98.7 46.5,97.9 47.2,97.2 48.3,96.6 48,95.9 46.9,95 
		47.1,94.3 47.6,93.6 49.1,93.1 48.2,92.3 48.1,91.5 48.1,90.8 49.2,90.3 47.9,89.3 49,88.8 49.5,88.2 50.2,87.6 48.9,86.5 
		50.3,86.2 49.1,85.1 50.1,84.6 50.2,83.9 50.9,83.4 50.5,82.5 50.6,81.8 52,81.5 52.4,80.9 52,80 51.2,78.8 52.3,78.5 53.4,78.3 
		52.8,77.2 53.4,76.7 54.3,76.3 54.7,75.7 55.2,75.2 55.1,74.4 54.3,73.1 55.6,73 55.1,71.8 55.4,71.2 57.3,71.6 57.3,70.7 
		57.1,69.7 58.4,69.8 58.3,68.8 59.4,68.7 58.3,67 59.9,67.3 60.7,67.1 60.1,65.7 61.3,65.8 61.9,65.3 61.9,64.4 62.1,63.5 
		63.3,63.7 63.1,62.5 64.5,62.9 64,61.4 64.9,61.3 65.4,60.7 66.2,60.6 66.9,60.3 66.8,59.1 67.1,58.3 67.8,58 68.4,57.6 69.7,58.2 
		69.6,56.9 70.7,57.1 71.4,56.9 70.8,54.8 72.2,55.5 72.1,54.2 72.7,53.7 73.9,54.3 74.7,54.1 74.8,53 76.1,53.8 75.9,51.9 
		76.9,52.3 77.9,52.6 78,51.2 79.2,52.1 79.8,51.7 80.5,51.6 80.5,49.9 81,49.2 81.9,49.4 82.6,49.1 83.4,49.1 84.5,50.1 85,49.3 
		85.8,49.6 85.9,47.6 87.1,48.9 87.8,49 88.2,47.7 88.8,47.3 89.4,46.8 90.1,46.4 90.9,46.5 91.8,47.4 92.4,46.5 93.3,47.7 94,47.4 
		94.4,45.7 95.3,46.4 95.9,45.4 96.6,45.6 97.4,46.5 98,45.3 98.8,46.4 99.5,45.5 100.2,45 101,46.4 101.7,46.3 102.4,44.7 
		103.1,46.2 103.9,45.2 104.6,45 105.3,46.7 106,45.3 106.7,46.9 107.4,47 108.1,47.1 108.9,45.4 109.6,46.1 110.3,46.1 111,46.2 
		111.7,46.5 112.5,46 113,47.6 113.9,46.7 114.6,46.9 115.3,47 116.2,46.4 116.6,47.5 117.2,48.1 117.8,48.8 119,47 119.5,47.9 
		120.4,47.6 120.7,48.9 121.6,48.4 122.1,49.2 122.7,49.6 123.7,49 123.9,50.5 124.8,50.1 125,51.4 126.1,50.8 126.6,51.4 127.6,51 
		128.3,51.3 128.3,52.8 129.3,52.4 129.7,53.2 130.9,52.5 131.8,52.5 131.5,54.3 132.9,53.4 133,54.7 133.2,55.6 133.7,56.2 
		134.7,55.9 136,55.4 136.4,56.1 136.8,56.7 136.7,58.1 137.4,58.3 137.8,58.9 139.4,58.1 139.2,59.5 139.5,60.2 140.6,60.1 
		141,60.6 142.2,60.4 142,61.6 143.1,61.6 142.3,63.4 142.9,63.8 143.4,64.3 144.1,64.6 144.5,65.3 145.2,65.6 146.7,65.2 
		146.6,66.3 146.9,67 147.6,67.3 148.4,67.6 147.5,69.1 148.9,69.1 148.5,70.2 149.6,70.3 150.3,70.7 150.6,71.4 150.1,72.5 
		151.5,72.5 151.6,73.3 152,73.9 152.7,74.4 153.1,75 152.7,76 152.4,76.9 154.3,76.8 153.1,78.2 154.3,78.4 153.4,79.6 153.8,80.2 
		154.3,80.8 154.6,81.4 156.1,81.6 155,82.8 155.1,83.5 156.2,83.9 155.4,84.9 156.6,85.2 155.7,86.3 157.3,86.6 156.3,87.6 
		157.2,88.1 158.1,88.6 158.7,89.2 156.8,90.3 158.7,90.7 157.2,91.7 158.2,92.3 158.1,93 157.7,93.8 157.4,94.5 159.2,95 
		159.7,95.7 159.5,96.5 159.7,97.2 159.3,97.9 158.7,98.7 159.3,99.4 158.3,100.1 158.3,100.8 	"/>
</g>
<g>
	<path fill="none" stroke="#911438" stroke-width="3" stroke-miterlimit="10" d="M156.2,103.4c-37.5,8.5-44.4,15.3-52.8,52.8
		c-8.5-37.5-15.3-44.4-52.8-52.8C88,94.9,94.9,88,103.4,50.5C111.9,88,118.7,94.9,156.2,103.4z"/>
</g>
<g>
	<circle fill="none" stroke="#B3B3B3" stroke-miterlimit="10" stroke-dasharray="9.9009,9.9009" cx="102.9" cy="102.9" r="44.1"/>
</g>
<g>
	<circle fill="none" stroke="#911438" stroke-miterlimit="10" stroke-dasharray="9.871,9.871" cx="102.7" cy="104.3" r="69.1"/>
</g>
<g>
	<g>
		<path fill="none" stroke="#380D1B" stroke-width="4" stroke-miterlimit="10" d="M102.2,103.4c-0.1,0.1-0.3,0.2-0.4,0.2
			c0.1,0.1,0.3,0.2,0.4,0.2"/>
		<path fill="none" stroke="#380D1B" stroke-width="4" stroke-miterlimit="10" stroke-dasharray="0.986,0.986" d="M103.1,104.3
			c29.7,16,17,28.5,1-1.6"/>
		<path fill="none" stroke="#380D1B" stroke-width="4" stroke-miterlimit="10" d="M103.8,102.2c-0.1-0.1-0.2-0.3-0.2-0.4
			c-0.1,0.1-0.2,0.3-0.2,0.4"/>
		<path fill="none" stroke="#380D1B" stroke-width="4" stroke-miterlimit="10" stroke-dasharray="0.986,0.986" d="M102.9,103.1
			c-16,29.7-28.5,17,1.6,1"/>
		<path fill="none" stroke="#380D1B" stroke-width="4" stroke-miterlimit="10" d="M105,103.8c0.1-0.1,0.3-0.2,0.4-0.2
			c-0.1-0.1-0.3-0.2-0.4-0.2"/>
		<path fill="none" stroke="#380D1B" stroke-width="4" stroke-miterlimit="10" stroke-dasharray="0.986,0.986" d="M104.1,102.9
			c-29.7-16-17-28.5-1,1.6"/>
		<path fill="none" stroke="#380D1B" stroke-width="4" stroke-miterlimit="10" d="M103.4,105c0.1,0.1,0.2,0.3,0.2,0.4
			c0.1-0.1,0.2-0.3,0.2-0.4"/>
		<path fill="none" stroke="#380D1B" stroke-width="4" stroke-miterlimit="10" stroke-dasharray="0.986,0.986" d="M104.3,104.1
			c16-29.7,28.5-17-1.6-1"/>
	</g>
</g>
<g>
	<g>
		<path fill="none" stroke="#B3B3B3" stroke-miterlimit="10" d="M111.6,103.6c0.1,0.1,0.3,0.1,0.5,0.2c-0.2,0.1-0.3,0.1-0.5,0.2"/>
		<path fill="none" stroke="#B3B3B3" stroke-miterlimit="10" stroke-dasharray="0.9946,0.9946" d="M110.7,104.5
			c-3.3,1.6-4.8,3.2-6.4,6.6"/>
		<path fill="none" stroke="#B3B3B3" stroke-miterlimit="10" d="M104,111.6c-0.1,0.1-0.1,0.3-0.2,0.5c-0.1-0.2-0.1-0.3-0.2-0.5"/>
		<path fill="none" stroke="#B3B3B3" stroke-miterlimit="10" stroke-dasharray="0.9946,0.9946" d="M103.2,110.7
			c-1.6-3.3-3.2-4.8-6.6-6.4"/>
		<path fill="none" stroke="#B3B3B3" stroke-miterlimit="10" d="M96.1,104c-0.1-0.1-0.3-0.1-0.5-0.2c0.2-0.1,0.3-0.1,0.5-0.2"/>
		<path fill="none" stroke="#B3B3B3" stroke-miterlimit="10" stroke-dasharray="0.9946,0.9946" d="M97,103.2
			c3.3-1.6,4.8-3.2,6.4-6.6"/>
		<path fill="none" stroke="#B3B3B3" stroke-miterlimit="10" d="M103.6,96.1c0.1-0.1,0.1-0.3,0.2-0.5c0.1,0.2,0.1,0.3,0.2,0.5"/>
		<path fill="none" stroke="#B3B3B3" stroke-miterlimit="10" stroke-dasharray="0.9946,0.9946" d="M104.5,97
			c1.6,3.3,3.2,4.8,6.6,6.4"/>
	</g>
</g>
<circle fill="none" stroke="#4D4D4D" stroke-width="4" stroke-miterlimit="10" cx="102.9" cy="101.3" r="31.3"/>
</svg>
