<?xml version="1.0" encoding="utf-8"?>
<!-- Generator: Adobe Illustrator 18.1.1, SVG Export Plug-In . SVG Version: 6.00 Build 0)  -->
<svg version="1.1" id="Layer_1" xmlns="http://www.w3.org/2000/svg" xmlns:xlink="http://www.w3.org/1999/xlink" x="0px" y="0px"
	 viewBox="0 0 285 270" enable-background="new 0 0 285 270" xml:space="preserve">
<circle fill="#4D4D4D" stroke="#000000" stroke-miterlimit="10" cx="144.5" cy="126.5" r="101"/>
<circle fill="#B3B3B3" cx="144.5" cy="126.5" r="78.1"/>
<circle fill="#FFFFFF" cx="144.1" cy="126.1" r="57.5"/>
<circle fill="#CCCCCC" stroke="#000000" stroke-miterlimit="10" cx="144.2" cy="126.2" r="48.8"/>
<circle fill="none" stroke="#FFFFFF" stroke-miterlimit="10" cx="130" cy="115" r="28.8"/>
<circle fill="none" stroke="#FFFFFF" stroke-miterlimit="10" cx="136" cy="135" r="28.8"/>
<circle fill="none" stroke="#FFFFFF" stroke-miterlimit="10" cx="159" cy="130" r="28.8"/>
<circle fill="none" stroke="#FFFFFF" stroke-miterlimit="10" cx="150" cy="112" r="28.8"/>
<g>
	<path fill="#FFFFFF" d="M183.3,125.7c-47.1-4.9-43.6-8.9-39.2,44.6c4.3-53.5,7.8-49.5-39.2-44.6c47.1,4.9,43.6,8.9,39.2-44.6
		C139.7,134.6,136.2,130.6,183.3,125.7z"/>
</g>
<circle fill="none" stroke="#FFFFFF" stroke-miterlimit="10" cx="175.5" cy="101.5" r="101"/>
<circle fill="none" stroke="#FFFFFF" stroke-miterlimit="10" cx="101.5" cy="111.5" r="101"/>
<circle fill="none" stroke="#FFFFFF" stroke-miterlimit="10" cx="121.5" cy="168.5" r="101"/>
<circle fill="none" stroke="#FFFFFF" stroke-miterlimit="10" cx="183.5" cy="152.5" r="101"/>
</svg>
