<?xml version="1.0" encoding="utf-8"?>
<!-- Generator: Adobe Illustrator 18.1.1, SVG Export Plug-In . SVG Version: 6.00 Build 0)  -->
<svg version="1.1" id="Layer_1" xmlns="http://www.w3.org/2000/svg" xmlns:xlink="http://www.w3.org/1999/xlink" x="0px" y="0px"
	 viewBox="0 0 116 116" enable-background="new 0 0 116 116" xml:space="preserve">
<radialGradient id="SVGID_1_" cx="58.0109" cy="58.0109" r="57.5109" gradientUnits="userSpaceOnUse">
	<stop  offset="0.2829" style="stop-color:#15FFEE"/>
	<stop  offset="0.3559" style="stop-color:#44F0E0"/>
	<stop  offset="0.4426" style="stop-color:#75E1D2"/>
	<stop  offset="0.5316" style="stop-color:#A0D4C6"/>
	<stop  offset="0.6214" style="stop-color:#C2CABC"/>
	<stop  offset="0.7122" style="stop-color:#DDC1B4"/>
	<stop  offset="0.8045" style="stop-color:#F0BCAE"/>
	<stop  offset="0.8992" style="stop-color:#FBB8AB"/>
	<stop  offset="1" style="stop-color:#FFB7AA"/>
</radialGradient>
<circle fill="url(#SVGID_1_)" stroke="#00FFBD" cx="58" cy="58" r="57.5"/>
<g>
	<circle fill="#FFB200" cx="58" cy="58" r="38.3"/>
	<circle fill="#FFB200" cx="58" cy="58" r="38.3"/>
	<circle fill="none" stroke="#DAD700" stroke-width="3" cx="58" cy="58" r="38.3"/>
	<path fill="#FFB200" d="M64.5,58c63.6,38.7,32.2,70.1-6.5,6.5c-38.7,63.6-70.1,32.2-6.5-6.5c-63.6-38.7-32.2-70.1,6.5-6.5
		C96.7-12.1,128.2,19.3,64.5,58z"/>
</g>
<g>
	<path fill="#FFCB00" d="M58.1,55.2c17,55.6-14.3,55.6,2.7,0c-55.6,17-55.6-14.3,0,2.7c-17-55.6,14.3-55.6-2.7,0
		C113.7,40.9,113.7,72.2,58.1,55.2z"/>
	<path fill="#FFCB00" d="M57.5,56.6c51.3,27.3,29.2,49.4,1.9-1.9C32.1,106,10,83.9,61.3,56.6C10,29.3,32.1,7.2,59.4,58.5
		C86.7,7.2,108.9,29.3,57.5,56.6z"/>
	<circle fill="none" stroke="#DAB700" stroke-width="3" cx="59.4" cy="56.6" r="23.8"/>
</g>
</svg>
