<?xml version="1.0" encoding="utf-8"?>
<!-- Generator: Adobe Illustrator 18.1.1, SVG Export Plug-In . SVG Version: 6.00 Build 0)  -->
<svg version="1.1" id="Layer_1" xmlns="http://www.w3.org/2000/svg" xmlns:xlink="http://www.w3.org/1999/xlink" x="0px" y="0px"
	 viewBox="0 0 300 300" enable-background="new 0 0 300 300" xml:space="preserve">
<circle fill="none" stroke="#00FFBD" cx="150" cy="150" r="148.7"/>
<g>
	<circle fill="#FFB200" cx="150" cy="150" r="99.1"/>
	<circle fill="#FFB200" cx="150" cy="150" r="99.1"/>
	<circle fill="none" stroke="#DAD700" stroke-width="3" cx="150" cy="150" r="99.1"/>
	<path fill="#FFB200" d="M166.8,150c164.5,100.1,83.3,181.3-16.8,16.8C49.9,331.3-31.3,250.1,133.2,150
		C-31.3,49.9,49.9-31.3,150,133.2C250.1-31.3,331.6,49.9,166.8,150z"/>
</g>
<g>
	<path fill="#FFCB00" d="M150.3,142.8c44,143.8-37,143.8,7,0c-143.8,44-143.8-37,0,7c-44-143.8,37-143.8-7,0
		C294.1,105.8,294.1,186.7,150.3,142.8z"/>
	<path fill="#FFCB00" d="M148.7,146.4c132.7,70.6,75.5,127.8,4.9-4.9C83,274.1,25.9,217,158.5,146.4C25.9,75.8,83,18.6,153.6,151.3
		C224.2,18.6,281.6,75.8,148.7,146.4z"/>
	<circle fill="none" stroke="#DAB700" stroke-width="3" cx="153.6" cy="146.4" r="61.6"/>
</g>
</svg>
