<?xml version="1.0" encoding="utf-8"?>
<!-- Generator: Adobe Illustrator 18.1.1, SVG Export Plug-In . SVG Version: 6.00 Build 0)  -->
<svg version="1.1" id="Layer_1" xmlns="http://www.w3.org/2000/svg" xmlns:xlink="http://www.w3.org/1999/xlink" x="0px" y="0px"
	 viewBox="0 0 265.5 265.5" enable-background="new 0 0 265.5 265.5" xml:space="preserve">
<circle fill="#2EFF93" stroke="#005769" stroke-width="4" stroke-miterlimit="10" cx="132.7" cy="132.7" r="130.7"/>
<circle fill="#45FFFF" stroke="#17607A" stroke-width="8" stroke-miterlimit="10" cx="133.3" cy="133.3" r="104.8"/>
<g>
	<radialGradient id="SVGID_1_" cx="133.2776" cy="133.2776" r="81.0136" gradientUnits="userSpaceOnUse">
		<stop  offset="0.2829" style="stop-color:#15FFEE"/>
		<stop  offset="0.3559" style="stop-color:#44EEC2"/>
		<stop  offset="0.4426" style="stop-color:#75DC95"/>
		<stop  offset="0.5316" style="stop-color:#A0CD6D"/>
		<stop  offset="0.6214" style="stop-color:#C2C14D"/>
		<stop  offset="0.7122" style="stop-color:#DDB735"/>
		<stop  offset="0.8045" style="stop-color:#F0B023"/>
		<stop  offset="0.8992" style="stop-color:#FBAC18"/>
		<stop  offset="1" style="stop-color:#FFAB15"/>
	</radialGradient>
	<circle fill="url(#SVGID_1_)" cx="133.3" cy="133.3" r="81"/>
	<radialGradient id="SVGID_2_" cx="131.9925" cy="132.6893" r="130.7375" gradientUnits="userSpaceOnUse">
		<stop  offset="0.2829" style="stop-color:#15FFEE"/>
		<stop  offset="0.3559" style="stop-color:#44EEC2"/>
		<stop  offset="0.4426" style="stop-color:#75DC95"/>
		<stop  offset="0.5316" style="stop-color:#A0CD6D"/>
		<stop  offset="0.6214" style="stop-color:#C2C14D"/>
		<stop  offset="0.7122" style="stop-color:#DDB735"/>
		<stop  offset="0.8045" style="stop-color:#F0B023"/>
		<stop  offset="0.8992" style="stop-color:#FBAC18"/>
		<stop  offset="1" style="stop-color:#FFAB15"/>
	</radialGradient>
	<path fill="url(#SVGID_2_)" d="M252.1,133.3c0,0.2-21.9,0.6-21.9,0.9c0,0.2-58.5-0.4-58.5-0.2c0,0.2,85,2.3,85,2.6
		c0,0.2-75.2-1.8-75.2-1.5c0,0.2,0.7,0.2,0.7,0.5c0,0.2,33.9,2,33.8,2.2c0,0.2-13-0.3-13-0.1c0,0.2-6.4-0.1-6.4,0.2
		c0,0.2,0.4,0.4,0.3,0.6c0,0.2-32.3-2.5-32.3-2.3c0,0.2,10,1,10,1.2c0,0.2-10.6-1-10.7-0.8c0,0.2,94.2,10.9,94.2,11.1
		c0,0.2-88.1-10-88.2-9.8c0,0.2,87.6,11.7,87.6,12c0,0.2-57.3-7.2-57.3-7c0,0.2-26.9-3.7-26.9-3.5c0,0.2,24,4,23.9,4.2
		c0,0.2,34.6,6.2,34.5,6.4c0,0.2-11.1-1.3-11.2-1.1c0,0.2,38,7.7,37.9,7.9c0,0.2-93.7-17.5-93.8-17.3c0,0.2,25.3,5.3,25.3,5.5
		c0,0.2,15.9,3.7,15.9,3.9c-0.1,0.2,28.8,6.9,28.8,7.1c-0.1,0.2-34.9-7.5-34.9-7.2c-0.1,0.2-33.1-7.7-33.1-7.5
		c-0.1,0.2-1.4-0.3-1.4,0c-0.1,0.2,11,2.9,11,3.2c-0.1,0.2,64.4,17.7,64.3,17.9c-0.1,0.2-26-6.5-26-6.3c-0.1,0.2-6.7-1.4-6.8-1.2
		c-0.1,0.2-3.4-0.5-3.4-0.3c-0.1,0.2-40.1-12-40.2-11.8c-0.1,0.2,34.9,11.3,34.9,11.5c-0.1,0.2,51,17.3,50.9,17.5
		c-0.1,0.2-10-2.5-10.1-2.3c-0.1,0.2-67.9-23-67.9-22.8c-0.1,0.2,15.8,5.8,15.8,6.1c-0.1,0.2-6.7-2.2-6.7-2
		c-0.1,0.2,16.6,6.6,16.5,6.8c-0.1,0.2,28.6,11.6,28.5,11.8c-0.1,0.2-26.5-10-26.6-9.7c-0.1,0.2-5.8-2-5.9-1.8
		c-0.1,0.2,25,10.9,24.9,11.1c-0.1,0.2,36.8,16.6,36.8,16.8c-0.1,0.2-54.9-23.4-55-23.1c-0.1,0.2-21.6-9.4-21.7-9.2
		c-0.1,0.2,53.8,25.3,53.7,25.5c-0.1,0.2-23.7-10.5-23.8-10.3c-0.1,0.2,24.3,12.4,24.2,12.6c-0.1,0.2,1.3,1.5,1.2,1.7
		c-0.1,0.2-49.1-24.2-49.2-24c-0.1,0.2,36.2,19.2,36.1,19.4c-0.1,0.2,21.3,12.1,21.2,12.3c-0.1,0.2-56.3-29.6-56.4-29.4
		c-0.1,0.2,1,0.9,0.8,1.1c-0.1,0.2,51.1,29.3,50.9,29.5c-0.1,0.2-46-25.7-46.1-25.5c-0.1,0.2,18.6,11.4,18.5,11.6
		c-0.1,0.2,33.7,21,33.6,21.2c-0.1,0.2-14.6-7.9-14.7-7.7c-0.1,0.2-20.2-11.8-20.3-11.6c-0.1,0.2,30.6,20.2,30.4,20.4
		c-0.1,0.2-3.4-1.2-3.5-1c-0.1,0.2-12.9-7.6-13-7.4c-0.1,0.2,2.8,2.8,2.7,3c-0.1,0.2-18.8-12.1-18.9-11.9
		c-0.1,0.2,18.4,13.6,18.3,13.8c-0.1,0.2,5.5,4.9,5.4,5.1c-0.1,0.2-44.9-31.8-45.1-31.6c-0.1,0.2,44.4,33.5,44.3,33.7
		c-0.1,0.2-62.9-46.7-63.1-46.5c-0.1,0.2,17.7,13.8,17.6,14c-0.1,0.2,46.9,37.3,46.8,37.5c-0.1,0.2-48.8-38-49-37.9
		c-0.1,0.2,40.2,33.2,40,33.4c-0.2,0.2-34.5-27.6-34.6-27.4c-0.2,0.2-14.3-11.6-14.4-11.4c-0.2,0.2,45.2,39.2,45,39.4
		c-0.2,0.2-38.3-32.6-38.4-32.4s49.6,44.7,49.5,44.8c-0.2,0.2-23.5-20.2-23.7-20c-0.2,0.2,10.8,10.8,10.6,11c-0.2,0.2-6.5-5.1-6.7-5
		c-0.2,0.2,6,6.7,5.9,6.9c-0.2,0.2-9.1-7.8-9.2-7.6s-33-31.9-33.2-31.7c-0.2,0.2,0.3,0.7,0.2,0.8s22.2,23.2,22.1,23.4
		s18.7,20.4,18.6,20.5s-4-3.1-4.2-3c-0.2,0.2,8.8,10.6,8.6,10.7c-0.2,0.2-13.9-14.1-14.1-13.9c-0.2,0.2-49-53.9-49.1-53.8
		c-0.2,0.2,31.8,36.4,31.6,36.6c-0.2,0.2-4.6-4.7-4.8-4.5c-0.2,0.2-15.4-17.6-15.6-17.4c-0.2,0.2-9.9-11.6-10-11.4
		c-0.2,0.2,57.3,70.4,57.1,70.6c-0.2,0.2-21-24.9-21.2-24.7c-0.2,0.1-31.7-39.4-31.9-39.2c-0.2,0.1,54,70.3,53.9,70.4
		c-0.2,0.1-21.1-26.3-21.3-26.2c-0.2,0.1-37.5-49.4-37.7-49.2c-0.2,0.1,39.5,54.3,39.3,54.4c-0.2,0.1,16.4,24,16.2,24.2
		c-0.2,0.1-39.5-54.6-39.7-54.4c-0.2,0.1-11.8-16.6-12-16.4c-0.2,0.1-6.9-10-7.1-9.8c-0.2,0.1,10.1,15.3,9.9,15.4
		c-0.2,0.1,36.6,56.5,36.4,56.6c-0.2,0.1-14.8-21.7-15-21.5c-0.2,0.1-23.9-37.1-24.1-36.9c-0.2,0.1,6.2,10.4,6,10.6
		c-0.2,0.1,35.6,59.6,35.4,59.7c-0.2,0.1-35.6-58.6-35.9-58.5c-0.2,0.1,20.8,36.6,20.6,36.7c-0.2,0.1-20.3-34.4-20.5-34.3
		c-0.2,0.1,16.6,30.5,16.4,30.6c-0.2,0.1,15.6,30,15.4,30.1c-0.2,0.1-37.4-68.4-37.6-68.3c-0.2,0.1,3.5,7.2,3.3,7.3
		c-0.2,0.1-2.4-4.2-2.7-4.1c-0.2,0.1,25.6,51.9,25.4,52c-0.2,0.1-9.6-17.9-9.8-17.8c-0.2,0.1-1.2-1.3-1.5-1.2
		c-0.2,0.1-10.3-20.8-10.5-20.7c-0.2,0.1-4.5-9-4.7-8.9c-0.2,0.1,13.7,31.5,13.5,31.6c-0.2,0.1-14.7-32.5-14.9-32.4
		c-0.2,0.1-10.9-25.3-11.2-25.2c-0.2,0.1,39.8,96.7,39.6,96.8c-0.2,0.1-37.6-91.2-37.9-91.1c-0.2,0.1,1.2,3.1,0.9,3.2
		c-0.2,0.1,30,78.9,29.8,79c-0.2,0.1-15-38-15.2-38c-0.2,0.1,2.6,8.6,2.4,8.7c-0.2,0.1-20.1-55.6-20.3-55.5
		c-0.2,0.1,6.8,20.2,6.6,20.2c-0.2,0.1,10.6,32.8,10.4,32.9c-0.2,0.1-9-26.2-9.2-26.2c-0.2,0.1,16.7,54.6,16.5,54.7
		c-0.2,0.1-25.6-82.2-25.8-82.1c-0.2,0.1,5.6,19.4,5.4,19.5c-0.2,0.1,22.5,80.7,22.3,80.8c-0.2,0.1-7.6-24.4-7.9-24.3
		c-0.2,0.1-20-73.2-20.2-73.2c-0.2,0.1,9.5,37.9,9.3,37.9c-0.2,0.1-3.7-13.4-3.9-13.3c-0.2,0.1-7-28.8-7.3-28.7
		c-0.2,0.1,16.8,74.6,16.5,74.7c-0.2,0.1-3.6-13.7-3.9-13.6c-0.2,0.1,3.6,20.2,3.4,20.3c-0.2,0-1.3-2.8-1.6-2.8
		c-0.2,0-14.4-72.7-14.6-72.7c-0.2,0,12.1,68.2,11.9,68.2c-0.2,0-9.9-54.4-10.1-54.4c-0.2,0,4.5,29.3,4.3,29.4
		c-0.2,0,3.2,24.3,3,24.3c-0.2,0-4.2-24.6-4.4-24.6c-0.2,0-3.2-21-3.5-21c-0.2,0,2.3,20.8,2.1,20.8c-0.2,0-1.5-9.2-1.7-9.2
		c-0.2,0,6.1,60.7,5.8,60.7c-0.2,0-6.4-57-6.7-57c-0.2,0-2.2-20.1-2.4-20.1c-0.2,0,4.6,61.1,4.4,61.1c-0.2,0-2.8-29.2-3-29.2
		c-0.2,0-3.8-53.8-4-53.8c-0.2,0,3,57.4,2.8,57.4c-0.2,0-2-32.9-2.2-32.9c-0.2,0-0.2,0.2-0.5,0.2c-0.2,0-0.3-1.2-0.5-1.2
		c-0.2,0-0.5-15.8-0.7-15.8c-0.2,0,0.7,89.6,0.5,89.6s-0.9-35.4-1.1-35.4c-0.2,0-0.3-29.6-0.5-29.6c-0.2,0,0-18.9-0.2-18.9
		c-0.2,0-0.7,20.7-0.9,20.7c-0.2,0-1.8,41.4-2,41.4c-0.2,0,1.9-59.2,1.7-59.2c-0.2,0-2,35.6-2.3,35.6c-0.2,0-1.6,18-1.8,18
		c-0.2,0,3.4-56.9,3.1-57c-0.2,0-1.5,17.8-1.8,17.8c-0.2,0,1.2-17.3,1-17.3c-0.2,0-5.1,51.1-5.3,51.1c-0.2,0-4.7,38.4-4.9,38.4
		c-0.2,0,0.8-15.1,0.6-15.2c-0.2,0,4.8-45.5,4.6-45.5c-0.2,0-1.2,6.2-1.5,6.1c-0.2,0-4.8,30.9-5.1,30.9c-0.2,0,0.5-8.5,0.3-8.5
		c-0.2,0-1.6,5.5-1.8,5.5c-0.2,0-3.8,18.3-4.1,18.3c-0.2,0,1.9-15.6,1.7-15.7c-0.2,0,3.1-20.6,2.9-20.6c-0.2,0,4.4-25.4,4.2-25.4
		c-0.2,0-3.5,15.3-3.7,15.2c-0.2,0-11.4,50.6-11.6,50.5c-0.2-0.1,18.9-88.4,18.7-88.5c-0.2-0.1-21.3,90.6-21.6,90.5
		c-0.2-0.1-1.1,0.6-1.3,0.5c-0.2-0.1,7-31.6,6.8-31.7c-0.2-0.1,3.6-16.4,3.4-16.5c-0.2-0.1,1.3-6.7,1.1-6.8
		c-0.2-0.1-15.4,52.9-15.6,52.8c-0.2-0.1,2-10.2,1.8-10.3c-0.2-0.1,21.1-72.8,20.8-72.9c-0.2-0.1-11.2,35.4-11.4,35.4
		c-0.2-0.1,4-14.2,3.8-14.3c-0.2-0.1,8.2-26,8-26.1c-0.2-0.1-14.9,43.3-15.1,43.2c-0.2-0.1,17.7-51.9,17.4-52
		c-0.2-0.1-17.7,48.7-17.9,48.7c-0.2-0.1,7.3-21.2,7.1-21.3c-0.2-0.1,12-32.4,11.8-32.5c-0.2-0.1-17.1,43.6-17.3,43.5
		c-0.2-0.1-13.2,31.8-13.5,31.7c-0.2-0.1,20.9-52.6,20.7-52.7c-0.2-0.1-14.3,33.3-14.6,33.2c-0.2-0.1-5.5,11.4-5.8,11.3
		c-0.2-0.1,3.1-8.5,2.9-8.6c-0.2-0.1-6.4,12.6-6.6,12.5c-0.2-0.1,10.5-24.2,10.3-24.3c-0.2-0.1,12.3-26.9,12.1-27
		c-0.2-0.1-33.9,69.1-34.1,69c-0.2-0.1,42.9-88.1,42.7-88.2c-0.2-0.1-29.1,57-29.3,56.9c-0.2-0.1-17.6,32.5-17.8,32.4
		c-0.2-0.1-0.7-0.6-0.9-0.7c-0.2-0.1,24.1-46.3,23.9-46.4c-0.2-0.1,13.7-25.6,13.5-25.7c-0.2-0.1-34.4,60.2-34.6,60.1
		c-0.2-0.1,16.4-29.9,16.2-30c-0.2-0.1-7.8,12.2-8,12.1c-0.2-0.1,5.3-10.1,5.1-10.2c-0.2-0.1,29-48.1,28.8-48.3
		c-0.2-0.1-31.6,50.3-31.8,50.2c-0.2-0.1,29.7-47.4,29.5-47.5c-0.2-0.1-43.8,67.1-44,66.9c-0.2-0.1,43.6-66.9,43.4-67
		c-0.2-0.1-10.5,15.3-10.7,15.2c-0.2-0.1-38.6,55.4-38.8,55.3c-0.2-0.1,30.1-44.2,29.9-44.3c-0.2-0.1-5.9,7.7-6.1,7.5
		c-0.2-0.1,9.9-14.3,9.7-14.4c-0.2-0.1-25.4,33.6-25.6,33.5c-0.2-0.1,26.9-36.6,26.7-36.8c-0.2-0.1-27.2,34.7-27.4,34.6
		c-0.2-0.1-4.1,4.1-4.3,4c-0.2-0.1,23.7-30.7,23.5-30.8c-0.2-0.1,19.9-25,19.7-25.1c-0.2-0.2-2.7,3.2-2.9,3
		c-0.2-0.2-56.5,66.7-56.7,66.5c-0.2-0.2,12.9-16.3,12.7-16.4c-0.2-0.2,17.4-20.9,17.2-21c-0.2-0.2,30.7-35.1,30.5-35.3
		c-0.2-0.2-8.1,8.8-8.2,8.7c-0.2-0.2-28.7,30.8-28.8,30.6c-0.2-0.2,20.6-22.7,20.5-22.9c-0.2-0.2,6.4-7,6.2-7.2
		c-0.2-0.2,0.6-0.9,0.5-1.1c-0.2-0.2-22.6,22.5-22.7,22.4S59,207.2,58.8,207s3.5-4.4,3.4-4.6c-0.2-0.2,28.9-28.5,28.7-28.7
		c-0.2-0.2,6.3-6.3,6.2-6.5c-0.2-0.2-8.3,7.4-8.5,7.3c-0.2-0.2-2.4,1.7-2.5,1.6c-0.2-0.2,26.3-23.9,26.2-24.1
		c-0.2-0.2-68.5,59.9-68.7,59.8c-0.2-0.2,21.1-19.2,21-19.4c-0.2-0.2-27.9,22.8-28.1,22.7c-0.2-0.2,50.3-42.9,50.2-43.1
		c-0.2-0.2-9.8,7.6-10,7.4c-0.2-0.2,23.2-19.1,23.1-19.3c-0.1-0.2,6.3-5.2,6.2-5.3c-0.1-0.2-65.9,50.7-66,50.5
		c-0.1-0.2,24.7-19.7,24.6-19.9c-0.1-0.2-8.1,5.4-8.3,5.2c-0.1-0.2-24.1,16.9-24.3,16.7c-0.1-0.2,62.8-46,62.6-46.2
		c-0.1-0.2-35.2,24.5-35.4,24.4c-0.1-0.2-8.7,5.3-8.9,5.1c-0.1-0.2,58.6-40.5,58.5-40.7c-0.1-0.2-14.2,9.4-14.3,9.2
		c-0.1-0.2-64,41.5-64.1,41.3c-0.1-0.2,24.5-16.7,24.4-16.9c-0.1-0.2,17-11.4,16.9-11.6c-0.1-0.2-26.8,16-27,15.8
		c-0.1-0.2,18.9-12.2,18.8-12.4c-0.1-0.2-36.5,21-36.7,20.8c-0.1-0.2,29.7-18.1,29.5-18.4c-0.1-0.2-33.7,18.4-33.8,18.2
		c-0.1-0.2,73.5-41.8,73.4-42c-0.1-0.2-15.2,8.1-15.4,7.9c-0.1-0.2,26.2-14.2,26.1-14.5c-0.1-0.2-10.5,5.4-10.6,5.2
		c-0.1-0.2-49.2,24.9-49.3,24.7c-0.1-0.2,17.5-9.4,17.4-9.6c-0.1-0.2-3.3,1.1-3.4,0.9c-0.1-0.2,6.5-3.6,6.4-3.8
		c-0.1-0.2-35.1,15.9-35.2,15.7c-0.1-0.2,72.4-33.7,72.3-34c-0.1-0.2-26.4,11.7-26.5,11.4c-0.1-0.2-11.2,4.5-11.3,4.3
		c-0.1-0.2-14.3,5.6-14.4,5.4c-0.1-0.2,47.6-20.2,47.5-20.4c-0.1-0.2-63.7,25.5-63.8,25.3c-0.1-0.2-23.1,8.3-23.1,8.1
		c-0.1-0.2-3,0.2-3.1-0.1c-0.1-0.2,16.7-7.2,16.7-7.4c-0.1-0.2,58.4-21.9,58.3-22.1c-0.1-0.2,5.1-2,5-2.2
		c-0.1-0.2-17.7,5.9-17.8,5.6c-0.1-0.2-5,1.3-5.1,1.1c-0.1-0.2,12.5-4.4,12.4-4.6c-0.1-0.2-72.4,22.2-72.4,22
		c-0.1-0.2,89.2-27.8,89.1-28.1c-0.1-0.2-90.6,26.3-90.7,26.1c-0.1-0.2,44.4-13.5,44.4-13.7c-0.1-0.2,43.6-12.4,43.5-12.6
		c-0.1-0.2-15.9,4-16,3.8c-0.1-0.2-27.2,6.6-27.3,6.4c-0.1-0.2,28-7.4,27.9-7.6c-0.1-0.2-74.8,17.2-74.9,17
		C2.6,163.7,56,151,55.9,150.7c-0.1-0.2-24.2,4.7-24.2,4.5c-0.1-0.2,21.2-5.1,21.1-5.3c0-0.2,19.8-4.4,19.7-4.6
		c0-0.2-29.9,5.3-30,5.1c0-0.2,27.7-5.5,27.6-5.8c0-0.2,21.1-3.9,21.1-4.1c0-0.2-84.7,13.4-84.7,13.2c0-0.2,83-13.4,83-13.7
		c0-0.2-73.6,10.3-73.6,10c0-0.2,42.6-6.5,42.6-6.7c0-0.2-39.6,4.5-39.6,4.2c0-0.2,49.4-6.5,49.4-6.7c0-0.2,31.6-3.7,31.6-3.9
		c0-0.2-82.4,7.9-82.4,7.7c0-0.2,54.1-5.5,54-5.8c0-0.2-57.5,4.2-57.5,4c0-0.2,24.4-2.5,24.4-2.8c0-0.2-10.8,0.1-10.8-0.2
		c0-0.2,60.8-3.9,60.7-4.1c0-0.2-26.2,1-26.2,0.7c0-0.2-49.4,1.3-49.4,1.1c0-0.2,62.5-2.5,62.5-2.7c0-0.2-65.1,0.9-65.1,0.6
		c0-0.2,86.4-1.6,86.4-1.8c0-0.2-85.2-0.1-85.2-0.3c0-0.2,19.4-0.7,19.4-0.9c0-0.2,37,0,37-0.3c0-0.2-26-1-25.9-1.3
		c0-0.2-33.2-1.7-33.2-2c0-0.2-4.5-1.1-4.4-1.3c0-0.2,101.1,4.4,101.1,4.2c0-0.2-26.5-1.6-26.4-1.9c0-0.2-67.4-5-67.3-5.2
		c0-0.2,13.4,0.2,13.5,0c0-0.2,26.2,1.6,26.2,1.3c0-0.2-47.6-5.1-47.6-5.3c0-0.2,4.4-0.5,4.4-0.7c0-0.2,51.5,5,51.5,4.8
		c0-0.2-11.7-1.9-11.7-2.1c0-0.2,53.4,6.6,53.5,6.3c0-0.2-86.8-12.4-86.7-12.6c0-0.2,27.6,3.3,27.7,3.1c0-0.2,49.1,7.3,49.1,7
		c0-0.2,2.1,0.2,2.1,0c0-0.2-48.2-8.7-48.1-9c0-0.2,28.7,4.8,28.8,4.6c0-0.2-25.2-5.3-25.2-5.5c0-0.2-30.9-6.9-30.8-7.1
		c0-0.2,76.7,15.7,76.8,15.5c0.1-0.2-48.7-11.1-48.7-11.3c0.1-0.2,58.5,13.1,58.6,12.9c0.1-0.2-80.6-19.7-80.5-19.9
		c0.1-0.2,40.4,9.5,40.5,9.2c0.1-0.2-59.4-16-59.4-16.2c0.1-0.2,64.4,16.6,64.4,16.3c0.1-0.2,7.1,1.6,7.1,1.4
		c0.1-0.2-42.6-12.7-42.5-12.9c0.1-0.2,59,17.1,59.1,16.9c0.1-0.2-60.4-18.9-60.3-19.2c0.1-0.2,31.9,9.5,32,9.3
		c0.1-0.2,9.1,2.6,9.2,2.4c0.1-0.2-46-16-46-16.3c0.1-0.2,27.6,8.9,27.7,8.7c0.1-0.2-48.3-18-48.3-18.2c0.1-0.2,9.6,2.6,9.7,2.3
		c0.1-0.2,46.9,17,47,16.8c0.1-0.2-34.9-14.1-34.8-14.3c0.1-0.2-10.2-4.9-10.1-5.1c0.1-0.2,5.4,1.3,5.5,1.1
		c0.1-0.2,74.7,30.7,74.8,30.5c0.1-0.2-6.4-2.9-6.3-3.1c0.1-0.2-16.5-7.5-16.4-7.7c0.1-0.2,23.2,10.2,23.3,10c0.1-0.2,0.6,0.2,0.7,0
		c0.1-0.2-34.5-16.5-34.3-16.7c0.1-0.2-4.9-2.8-4.8-3.1c0.1-0.2-32.4-16.7-32.3-16.9c0.1-0.2,21.2,9.9,21.3,9.7
		c0.1-0.2,45.2,22.9,45.3,22.7c0.1-0.2-21.1-11.4-21-11.6c0.1-0.2-4.6-2.9-4.5-3.1c0.1-0.2-49.5-27.9-49.3-28.1
		c0.1-0.2,86.9,48.2,87,48c0.1-0.2-74.5-43.2-74.4-43.4c0.1-0.2-13.4-8.8-13.3-9c0.1-0.2,13.7,7.2,13.8,7c0.1-0.2,8.4,4.3,8.5,4.1
		c0.1-0.2-21.9-14.6-21.8-14.8c0.1-0.2,85.1,53.3,85.2,53.1c0.1-0.2-10.7-7-10.6-7.2c0.1-0.2-73.7-49.2-73.6-49.4
		c0.1-0.2,0.7-0.7,0.8-0.9c0.1-0.2,17.3,10.8,17.4,10.6c0.1-0.2,27.7,18.5,27.8,18.4c0.1-0.2-41.5-30.3-41.3-30.5
		c0.1-0.2,82,58.8,82.1,58.6c0.1-0.2-83.6-62.3-83.4-62.4c0.1-0.2,66.6,49.4,66.8,49.2c0.1-0.2-32.6-25.4-32.4-25.6
		c0.1-0.2-19.4-16-19.2-16.2c0.1-0.2,38.7,30,38.8,29.8c0.1-0.2,6.9,5.1,7,4.9c0.2-0.2-20-17-19.8-17.2c0.2-0.2-5.1-5-5-5.2
		c0.2-0.2-2.5-2.9-2.3-3.1c0.2-0.2,38.1,32.6,38.3,32.4c0.2-0.2,3,2.4,3.1,2.2c0.2-0.2-15.4-14.1-15.2-14.3c0.2-0.2-22-20.8-21.9-21
		c0.2-0.2-6.7-7.1-6.5-7.3c0.2-0.2,18,16.3,18.2,16.1c0.2-0.2-9.6-10-9.5-10.2c0.2-0.2-16.7-17.4-16.5-17.5s62.1,61.6,62.3,61.4
		c0.2-0.2-59.5-61.2-59.3-61.3c0.2-0.2,56.2,57.7,56.4,57.5c0.2-0.2-7.4-8-7.3-8.2c0.2-0.2-45.5-49.6-45.4-49.7
		c0.2-0.2,38.1,40.9,38.3,40.7c0.2-0.2,7,7.4,7.2,7.3c0.2-0.2-30.3-34.9-30.1-35c0.2-0.2,34.6,39.3,34.8,39.2
		c0.2-0.2-12.4-14.9-12.3-15.1c0.2-0.2-37.6-45.8-37.4-45.9c0.2-0.2-7.8-10.8-7.6-11c0.2-0.2,45.3,55.1,45.5,55
		c0.2-0.1-27.6-35.6-27.4-35.8c0.2-0.1,19.3,23.9,19.5,23.8c0.2-0.1-7.7-10.9-7.5-11c0.2-0.1-17.2-24-17-24.1c0.2-0.1-0.4-2-0.2-2.1
		c0.2-0.1,20.3,26.8,20.5,26.7c0.2-0.1,3.3,3.7,3.5,3.6c0.2-0.1-21.1-31.5-21-31.6c0.2-0.1,24.2,34.3,24.4,34.2
		c0.2-0.1,6.4,8.8,6.6,8.6c0.2-0.1-30.2-47-30-47.2c0.2-0.1,35.5,54,35.7,53.8c0.2-0.1,8.2,12.5,8.4,12.4
		c0.2-0.1-40.6-66.3-40.4-66.5c0.2-0.1,23.1,36.8,23.3,36.6c0.2-0.1,17.4,28.6,17.6,28.5c0.2-0.1-41.6-72.3-41.4-72.4
		c0.2-0.1,17.1,28.4,17.3,28.3c0.2-0.1-13.4-25.4-13.2-25.5c0.2-0.1,42.4,76.3,42.6,76.2c0.2-0.1-23.4-44.1-23.1-44.2
		c0.2-0.1,6,10.4,6.2,10.3c0.2-0.1,6.7,12.2,6.9,12.1c0.2-0.1-6.7-14.2-6.5-14.3C99.6,65,113,92,113.2,91.9
		C113.4,91.8,87.8,38.1,88,38c0.2-0.1,18.6,38.4,18.8,38.3c0.2-0.1-3.3-8-3-8.1c0.2-0.1,7.3,15.5,7.5,15.4
		c0.2-0.1-25.7-60.1-25.5-60.2c0.2-0.1,27.7,63.6,28,63.5c0.2-0.1,6,14.1,6.2,14c0.2-0.1-1.5-3.8-1.2-3.9c0.2-0.1-2.5-6.6-2.2-6.7
		c0.2-0.1-0.8-2.6-0.6-2.7c0.2-0.1,4.3,11.1,4.5,11c0.2-0.1-28.2-78.4-28-78.5c0.2-0.1,29.7,82.2,29.9,82.1
		c0.2-0.1-26.6-78.2-26.4-78.3c0.2-0.1,26.4,77.4,26.7,77.3c0.2-0.1-15.7-49.1-15.5-49.2c0.2-0.1-7.4-25.7-7.2-25.8
		c0.2-0.1,16.6,52.4,16.8,52.4c0.2-0.1-15-52.5-14.8-52.5c0.2-0.1,3,7.8,3.2,7.7c0.2-0.1,5.1,16,5.3,16c0.2-0.1,1.7,4.5,2,4.5
		c0.2-0.1-12-49.3-11.7-49.4c0.2-0.1,7.9,28.7,8.2,28.6c0.2-0.1,13.8,56.1,14.1,56.1c0.2-0.1-0.7-3.9-0.5-4
		c0.2-0.1-3.8-18.6-3.6-18.6c0.2-0.1-6.1-31.4-5.9-31.4c0.2,0,13.2,63.7,13.4,63.6c0.2,0-4.5-24.2-4.2-24.3c0.2,0-9.7-55.9-9.4-55.9
		c0.2,0,7,36.4,7.2,36.3c0.2,0,5.1,29.2,5.4,29.2c0.2,0-0.1-1.9,0.2-1.9c0.2,0-2.6-19.9-2.4-20c0.2,0-4.8-39.2-4.6-39.3
		c0.2,0,9.9,73.9,10.1,73.9c0.2,0-4.3-38.3-4.1-38.4c0.2,0,4.9,42.2,5.1,42.2c0.2,0-1.9-20.6-1.7-20.6c0.2,0-5.5-64.8-5.2-64.8
		c0.2,0,3.2,29.9,3.4,29.9c0.2,0-0.5-15.1-0.3-15.1c0.2,0,3.4,44.7,3.7,44.7c0.2,0-1.6-35.1-1.3-35.1c0.2,0,0.8,4,1,4
		c0.2,0,0.1-13.1,0.3-13.1c0.2,0,1.9,45.3,2.1,45.3c0.2,0-0.8-62.1-0.6-62.1c0.2,0,1.2,47,1.5,47s0.4,35.3,0.6,35.3
		c0.2,0,0.5-43.3,0.7-43.3c0.2,0-0.3,41.5,0,41.5c0.2,0,1.3-45.3,1.5-45.3c0.2,0,1.4-25,1.6-25c0.2,0,1.4-16,1.7-16
		c0.2,0,0.1,14.4,0.4,14.4c0.2,0-0.8,25.7-0.6,25.7c0.2,0-1.9,34.6-1.7,34.6c0.2,0-0.7,11.7-0.5,11.7c0.2,0,2.9-31.7,3.1-31.6
		c0.2,0,3.8-35.5,4.1-35.5c0.2,0-1.8,23.4-1.5,23.4c0.2,0-3.5,34.4-3.2,34.5c0.2,0,10.7-85.1,11-85c0.2,0-6.1,52.8-5.8,52.8
		c0.2,0,1.5-7,1.7-7c0.2,0-4.1,30.6-3.8,30.7c0.2,0,11-67,11.2-67c0.2,0-9.9,63.7-9.7,63.7c0.2,0-3.7,22.3-3.4,22.3
		c0.2,0,2.6-13.1,2.8-13.1c0.2,0,14.8-73.9,15-73.9c0.2,0-7.3,39.8-7.1,39.9c0.2,0,0.2,1.7,0.4,1.8c0.2,0.1-6.4,30.8-6.2,30.8
		c0.2,0.1,14.8-62.1,15-62c0.2,0.1-2.7,14.6-2.5,14.7c0.2,0.1-13.7,56.8-13.5,56.9c0.2,0.1-0.7,3.2-0.5,3.2
		c0.2,0.1,6.5-23.3,6.7-23.3c0.2,0.1-6.7,25.1-6.5,25.1c0.2,0.1,16.4-55.9,16.7-55.9c0.2,0.1-1.4,6.9-1.2,7c0.2,0.1-0.1,2.3,0.1,2.4
		c0.2,0.1,14.7-44,14.9-43.9c0.2,0.1-11.9,38.9-11.6,38.9c0.2,0.1,0.1,1.4,0.4,1.5c0.2,0.1,8.1-21.3,8.3-21.3
		c0.2,0.1,2.2-3.8,2.4-3.7c0.2,0.1,3.4-6.8,3.6-6.7c0.2,0.1-29.1,78.8-28.9,78.9c0.2,0.1,0.8-1.6,1-1.5c0.2,0.1,28.3-70.1,28.6-70
		c0.2,0.1-8.6,23-8.4,23.1c0.2,0.1-18,44-17.7,44.1c0.2,0.1,3-6.4,3.2-6.3c0.2,0.1,11.4-25.1,11.6-25c0.2,0.1-7.3,17.2-7.1,17.3
		c0.2,0.1,8.4-17.2,8.6-17.1c0.2,0.1-23,49.4-22.8,49.5c0.2,0.1,3.8-7.8,4-7.7c0.2,0.1,24.3-48.6,24.5-48.5
		c0.2,0.1-26.5,53.2-26.3,53.3c0.2,0.1,29.6-56.7,29.8-56.6c0.2,0.1-23.3,45.1-23.1,45.2c0.2,0.1,12.7-23.1,12.9-22.9
		c0.2,0.1-9.3,17.5-9.1,17.6c0.2,0.1,18.1-31.4,18.3-31.3c0.2,0.1,10.3-16.7,10.5-16.6c0.2,0.1-24.4,42.7-24.2,42.8
		c0.2,0.1,6.8-10.8,7-10.7c0.2,0.1,22.5-35.9,22.7-35.8c0.2,0.1-29.9,49.1-29.7,49.2c0.2,0.1,39.5-61.3,39.7-61.2
		c0.2,0.1-27.7,44-27.5,44.2c0.2,0.1-13.7,21.4-13.5,21.6c0.2,0.1-12.4,18.6-12.2,18.8c0.2,0.1,10-14.4,10.2-14.2
		c0.2,0.1,33.1-46.7,33.3-46.6c0.2,0.1-19.3,28.1-19.1,28.3c0.2,0.1-8.6,12.4-8.4,12.5c0.2,0.1,40.2-53.5,40.3-53.4
		c0.2,0.1-24.1,33.1-23.9,33.3c0.2,0.1-10.2,14-10,14.2c0.2,0.1,16.9-20.9,17.1-20.8c0.2,0.1,17.1-20.5,17.3-20.3
		c0.2,0.1-37.7,47.4-37.5,47.6c0.2,0.2,45.5-54.3,45.6-54.2c0.2,0.2-9.5,12.6-9.3,12.7c0.2,0.2-38,45.3-37.9,45.5
		c0.2,0.2,32.9-37.2,33.1-37.1c0.2,0.2-26.1,30.3-26,30.5c0.2,0.2,29.6-32.1,29.8-31.9c0.2,0.2-19.3,21.9-19.1,22
		c0.2,0.2,10.5-10.5,10.7-10.4C196,66.9,226,36,226.2,36.2c0.2,0.2-29.3,31.5-29.2,31.6c0.2,0.2-27.6,28.6-27.4,28.8
		s-4.3,4.6-4.1,4.7s59.9-58.1,60.1-57.9c0.2,0.2,2.1-0.8,2.3-0.6c0.2,0.2-33,32.3-32.9,32.5c0.2,0.2-10.9,10.8-10.8,11
		c0.2,0.2,14.2-12.3,14.3-12.2c0.2,0.2-44.7,40.5-44.5,40.7c0.2,0.2,40.4-35.4,40.6-35.2c0.2,0.2-38.5,33.7-38.3,33.9
		c0.2,0.2,53.7-45.3,53.8-45.1c0.2,0.2-26,22.4-25.8,22.6c0.2,0.2,22.6-17.9,22.7-17.8c0.2,0.2-44,36-43.9,36.2
		c0.1,0.2,27.1-21.2,27.3-21c0.1,0.2,48.6-37,48.7-36.8c0.1,0.2-43.8,34.3-43.6,34.5c0.1,0.2-15.2,11.9-15.1,12.1
		c0.1,0.2-6.4,5-6.2,5.2c0.1,0.2,21.3-15,21.4-14.8c0.1,0.2-13.6,10.1-13.4,10.3c0.1,0.2-14.7,10.5-14.6,10.7
		c0.1,0.2,54.4-36.7,54.6-36.5c0.1,0.2,21.6-13.5,21.8-13.3c0.1,0.2-18.4,13.1-18.2,13.3c0.1,0.2-32.6,21.7-32.5,21.9
		c0.1,0.2-29.5,18.9-29.4,19.1c0.1,0.2,68.2-41.8,68.3-41.6c0.1,0.2-64.6,39.8-64.5,40.1c0.1,0.2,52.7-31,52.8-30.8
		c0.1,0.2,10.7-5.4,10.8-5.2c0.1,0.2-57.3,33.3-57.1,33.5c0.1,0.2,66.4-36.6,66.5-36.4c0.1,0.2-47.1,26.6-47,26.8
		c0.1,0.2,2.2-0.7,2.3-0.5c0.1,0.2-15.9,8.7-15.8,8.9c0.1,0.2,57.2-28.9,57.3-28.7c0.1,0.2-58.4,30-58.3,30.2
		c0.1,0.2,50.5-24.3,50.6-24.1c0.1,0.2-17.7,9.2-17.6,9.4c0.1,0.2,29.4-13.1,29.5-12.9c0.1,0.2-27.8,13.5-27.7,13.7
		c0.1,0.2,22.9-9.6,23-9.3c0.1,0.2-33.5,15.3-33.4,15.5c0.1,0.2,21.7-8.7,21.8-8.5c0.1,0.2-16.1,7.3-16,7.5c0.1,0.2,6.7-2.1,6.8-1.9
		c0.1,0.2-9.4,4.3-9.3,4.5c0.1,0.2-34.9,13.8-34.9,14c0.1,0.2-8.1,3.1-8,3.4c0.1,0.2,31.6-11.4,31.7-11.1
		c0.1,0.2,33.9-11.5,33.9-11.3c0.1,0.2,4.9-1,5-0.7c0.1,0.2-36.4,12.8-36.3,13c0.1,0.2-18.4,6.3-18.3,6.5c0.1,0.2,75.3-23.2,75.4-23
		c0.1,0.2-42.1,13.6-42,13.8c0.1,0.2,13-3.3,13.1-3c0.1,0.2,14.3-3.4,14.4-3.1c0.1,0.2-15.8,5.1-15.7,5.3c0.1,0.2-8.8,2.9-8.7,3.2
		c0.1,0.2-53.8,14.2-53.8,14.4c0.1,0.2,61.4-14.9,61.4-14.7c0.1,0.2-21.7,5.7-21.6,5.9c0.1,0.2-6.3,1.8-6.3,2.1
		c0.1,0.2,27-5.5,27.1-5.2c0.1,0.2,4.1-0.3,4.2,0c0,0.2-56.8,11.8-56.8,12c0,0.2,59.9-11.1,60-10.9c0,0.2,30.7-4.8,30.8-4.6
		c0,0.2-76.1,13.8-76.1,14c0,0.2,11.3-1.6,11.4-1.3c0,0.2,26.4-3.7,26.5-3.4c0,0.2,22.3-2.6,22.3-2.3c0,0.2-7.1,1.7-7.1,2
		c0,0.2-36.7,5.2-36.6,5.5c0,0.2,17.6-1.6,17.6-1.4c0,0.2,6.6-0.2,6.6,0.1c0,0.2-30.3,3.5-30.3,3.8c0,0.2-3.8,0.7-3.8,0.9
		c0,0.2,2.3,0.1,2.3,0.3c0,0.2,41.3-2.6,41.3-2.4c0,0.2-8.4,1.2-8.4,1.4c0,0.2-48,3.1-48,3.4c0,0.2,25.3-0.9,25.3-0.7
		c0,0.2,13.7-0.1,13.7,0.2c0,0.2,5.1,0.4,5.1,0.6c0,0.2,5,0.5,5,0.7c0,0.2-59.1,1.1-59.1,1.4C169,133.2,252.1,133,252.1,133.3z"/>
	<circle fill="none" stroke="#2EFFB0" stroke-width="8" stroke-miterlimit="10" cx="133.3" cy="133.3" r="81"/>
</g>
</svg>
