<?xml version="1.0" encoding="utf-8"?>
<!-- Generator: Adobe Illustrator 18.1.1, SVG Export Plug-In . SVG Version: 6.00 Build 0)  -->
<svg version="1.1" id="Layer_1" xmlns="http://www.w3.org/2000/svg" xmlns:xlink="http://www.w3.org/1999/xlink" x="0px" y="0px"
	 viewBox="0 0 301 216.7" enable-background="new 0 0 301 216.7" xml:space="preserve">
<path fill="#FFFFFF" stroke="#FFFFFF" stroke-miterlimit="10" d="M269.7,62.2H31.3c-17,0-30.8-13.8-30.8-30.8v0
	c0-17,13.8-30.8,30.8-30.8h238.3c17,0,30.8,13.8,30.8,30.8v0C300.5,48.4,286.7,62.2,269.7,62.2z"/>
<path fill="#FFFFFF" stroke="#FFFFFF" stroke-miterlimit="10" d="M269.7,140.2H31.3c-17,0-30.8-13.8-30.8-30.8v0
	c0-17,13.8-30.8,30.8-30.8h238.3c17,0,30.8,13.8,30.8,30.8v0C300.5,126.4,286.7,140.2,269.7,140.2z"/>
<path fill="#FFFFFF" stroke="#FFFFFF" stroke-miterlimit="10" d="M269.7,216.2H31.3c-17,0-30.8-13.8-30.8-30.8v0
	c0-17,13.8-30.8,30.8-30.8h238.3c17,0,30.8,13.8,30.8,30.8v0C300.5,202.4,286.7,216.2,269.7,216.2z"/>
</svg>
